<svg viewBox="0 0 80 80" xmlns="http://www.w3.org/2000/svg">
  <defs>
    <linearGradient id="mainGradient" x1="0%" y1="0%" x2="100%" y2="100%">
      <stop offset="0%" style="stop-color:#4F46E5;stop-opacity:1" />
      <stop offset="50%" style="stop-color:#7C3AED;stop-opacity:1" />
      <stop offset="100%" style="stop-color:#EC4899;stop-opacity:1" />
    </linearGradient>
    <linearGradient id="aiGradient" x1="0%" y1="0%" x2="100%" y2="100%">
      <stop offset="0%" style="stop-color:#06B6D4;stop-opacity:1" />
      <stop offset="100%" style="stop-color:#3B82F6;stop-opacity:1" />
    </linearGradient>
  </defs>
  
  <!-- Main container circle -->
  <circle cx="40" cy="40" r="35" fill="url(#mainGradient)" opacity="0.1"/>
  
  <!-- Browser window -->
  <rect x="20" y="25" width="40" height="30" rx="6" fill="none" stroke="url(#mainGradient)" stroke-width="3"/>
  <rect x="20" y="25" width="40" height="8" rx="6" fill="url(#mainGradient)" opacity="0.8"/>
  
  <!-- Browser dots -->
  <circle cx="27" cy="29" r="2" fill="white"/>
  <circle cx="34" cy="29" r="2" fill="white"/>
  <circle cx="41" cy="29" r="2" fill="white"/>
  
  <!-- AI circuit/neural pattern inside browser -->
  <g stroke="url(#aiGradient)" stroke-width="2" fill="url(#aiGradient)">
    <!-- Central AI node -->
    <circle cx="40" cy="44" r="4" opacity="0.9"/>
    
    <!-- Connected nodes -->
    <circle cx="30" cy="38" r="2.5" opacity="0.8"/>
    <circle cx="50" cy="38" r="2.5" opacity="0.8"/>
    <circle cx="30" cy="50" r="2.5" opacity="0.8"/>
    <circle cx="50" cy="50" r="2.5" opacity="0.8"/>
    
    <!-- Connection lines -->
    <line x1="32" y1="40" x2="37" y2="42" opacity="0.6" stroke-linecap="round"/>
    <line x1="48" y1="40" x2="43" y2="42" opacity="0.6" stroke-linecap="round"/>
    <line x1="32" y1="48" x2="37" y2="46" opacity="0.6" stroke-linecap="round"/>
    <line x1="48" y1="48" x2="43" y2="46" opacity="0.6" stroke-linecap="round"/>
  </g>
  
  <!-- Subtle magic sparkle -->
  <g fill="url(#aiGradient)" opacity="0.6">
    <path d="M65 20 L67 24 L71 22 L69 26 L73 28 L69 30 L71 34 L67 32 L65 36 L63 32 L59 34 L61 30 L57 28 L61 26 L59 22 L63 24 Z" transform="scale(0.25)"/>
  </g>
</svg>